<?xml version="1.0" standalone="no"?>
<!DOCTYPE svg PUBLIC "-//W3C//DTD SVG 20010904//EN"
 "http://www.w3.org/TR/2001/REC-SVG-20010904/DTD/svg10.dtd">
<svg version="1.0" xmlns="http://www.w3.org/2000/svg"
 width="260.000000pt" height="260.000000pt" viewBox="0 0 260.000000 260.000000"
 preserveAspectRatio="xMidYMid meet">
<metadata>
Created by potrace 1.11, written by Peter Selinger 2001-2013
</metadata>
<g transform="translate(0.000000,260.000000) scale(0.100000,-0.100000)"
fill="#000000" stroke="none">
<path d="M1175 2273 c-44 -23 -65 -44 -86 -85 -21 -41 -25 -111 -8 -155 13
-36 64 -88 100 -104 26 -10 29 -16 29 -59 l0 -47 -77 -13 c-113 -18 -211 -44
-297 -80 l-75 -32 -55 -111 c-73 -149 -126 -354 -126 -487 0 -40 -4 -50 -25
-64 -14 -9 -56 -43 -95 -76 -60 -52 -74 -60 -110 -60 -32 0 -48 -7 -76 -33
-31 -29 -36 -38 -34 -77 2 -65 1 -97 -6 -168 -5 -55 -3 -67 20 -106 48 -81
142 -94 259 -35 87 45 97 57 98 118 l0 56 24 -64 c39 -106 112 -168 256 -219
119 -42 275 -62 480 -62 154 0 177 2 215 21 85 41 163 141 219 280 l32 78 54
-36 c68 -45 79 -59 79 -100 0 -57 87 -136 174 -157 45 -11 133 12 170 45 60
53 66 98 37 283 -15 92 -67 148 -143 152 -24 1 -63 13 -88 27 -25 14 -85 40
-134 58 l-88 33 6 41 c4 22 9 139 12 260 l6 220 -56 57 c-72 73 -166 140 -251
179 -75 34 -217 68 -282 69 l-43 0 0 49 c0 46 2 49 29 54 38 8 100 63 117 104
28 65 13 152 -35 207 -46 53 -162 73 -226 39z m606 -770 c13 -16 12 -17 -3 -4
-10 7 -18 15 -18 17 0 8 8 3 21 -13z m-484 -455 c-3 -8 -6 -5 -6 6 -1 11 2 17
5 13 3 -3 4 -12 1 -19z"/>
</g>
</svg>
